<svg width="511" height="125" viewBox="0 0 511 125" fill="none" xmlns="http://www.w3.org/2000/svg">
<path fill-rule="evenodd" clip-rule="evenodd" d="M442.618 48.5609C442.041 48.9183 441.296 49.0176 440.962 48.7861C440.627 48.5467 441.099 48.2584 442.006 48.133C443.015 48.0031 443.252 48.1692 442.618 48.5609ZM433.888 49.5003C433.418 49.5832 432.727 49.3054 432.354 48.886C431.979 48.4672 432.056 48.054 432.526 47.971C432.999 47.8877 433.693 48.165 434.068 48.5839C434.44 49.0032 434.361 49.4169 433.888 49.5003ZM398.002 50.5255C395.864 50.9023 394.494 49.7822 395.736 48.676C396.206 48.2626 397.321 48.4312 398.214 49.057C399.72 50.1133 399.702 50.2256 398.002 50.5255ZM383.943 33.5141C381.628 33.9837 380.913 33.694 382.042 32.7515C382.358 32.4854 383.442 32.4407 384.453 32.6542C386.055 32.99 385.989 33.1002 383.943 33.5141ZM376.708 35.0512C373.19 35.9993 367.691 36.0203 369.869 35.0765C371.753 34.2594 380.518 32.9057 380.608 33.4122C380.665 33.7219 378.908 34.458 376.708 35.0512ZM327.416 68.2422C324.739 68.7329 322.244 68.7865 321.869 68.3677C321.494 67.9488 321.497 67.5272 321.872 67.4318C322.246 67.3338 323.933 66.8658 325.611 66.3807C327.415 65.8628 329.414 65.8833 330.478 66.4312C332.103 67.2612 331.792 67.4466 327.416 68.2422ZM293.359 62.8716C292.67 63.8566 286.21 65.1075 266.618 68.0531C264.487 68.3729 261.9 68.3334 260.864 67.9699C259.828 67.5982 255.692 67.8079 251.671 68.4263C242.013 69.9161 240.233 70.0701 238.918 69.5159C238.311 69.2632 237.242 69.3983 236.542 69.8122C235.707 70.3192 235.19 70.1092 235.03 69.1995C234.896 68.4422 234.209 67.9266 233.503 68.0511C232.797 68.1755 232.139 67.8438 232.046 67.314C231.927 66.6421 233.164 66.312 236.053 66.237C240.075 66.1355 248.055 64.7576 257.559 62.5302C260.428 61.8591 263.162 61.7795 264.995 62.3223C266.589 62.7953 271.025 62.8072 274.848 62.3463C278.674 61.8902 282.314 61.7974 282.944 62.1366C284.096 62.7648 286.926 62.7615 291.581 62.1272C293.412 61.8736 293.911 62.0842 293.359 62.8716ZM210.996 35.4645C209.407 37.1223 205.191 38.1456 204.26 37.0973C203.927 36.7242 200.882 36.8641 197.493 37.411C194.103 37.9528 191.126 38.2539 190.877 38.0767C190.366 37.7191 194.619 35.6208 195.981 35.5592C196.462 35.5357 200.357 35.1713 204.64 34.7493C211.574 34.0702 212.261 34.1462 210.996 35.4645ZM149.139 46.6007C145.718 47.1799 142.86 47.3081 142.784 46.8765C142.709 46.4501 143.533 45.9423 144.616 45.7514C145.699 45.5605 146.896 44.9577 147.275 44.4192C148.289 42.9721 162.662 39.4197 162.864 40.5672C163.147 42.1721 155.562 45.5054 149.139 46.6007ZM139.623 43.9727C138.682 44.8289 138.722 45.2828 139.851 46.5467C141.546 48.4408 140.634 48.9054 130.533 51.2674C126.681 52.1652 123.506 52.7489 123.473 52.5603C123.368 51.9685 128.406 48.8445 132.452 46.9906C134.596 46.0049 136.497 44.8304 136.676 44.383C136.857 43.9274 137.849 43.4168 138.884 43.2423C140.403 42.9851 140.543 43.1283 139.623 43.9727ZM204.198 14.9592C205.316 14.7834 205.308 14.9634 204.154 15.9316C203.382 16.5847 202.559 16.9829 202.322 16.8169C201.61 16.3162 202.75 15.1906 204.198 14.9592ZM207.915 13.3949C208.718 13.2531 208.951 12.3993 208.584 10.9345C208.126 9.10732 208.475 8.47542 210.464 7.51448C213.659 5.98393 215.432 6.35602 215.254 8.5352C215.152 9.78174 215.618 10.2511 216.925 10.2125C217.925 10.1854 218.96 10.5705 219.226 11.0672C219.866 12.2602 217.02 13.5294 211.481 14.5194C209.007 14.9663 206.919 14.9427 206.836 14.4698C206.753 13.9994 207.235 13.5147 207.915 13.3949ZM234.456 13.3543C236.339 13.0303 237.042 13.0901 236.014 13.482C234.985 13.8739 233.441 14.1382 232.584 14.0682C231.726 13.9981 232.571 13.6787 234.456 13.3543ZM245.124 12.5126L251.062 12.3797L246.717 13.9477C243.51 15.1022 241.984 15.2861 240.885 14.6617C238.177 13.1193 239.116 12.6393 245.124 12.5126ZM255.901 11.1876C258.238 10.7355 261.088 9.45754 262.678 8.15131C265.732 5.65694 268.315 4.89234 269.441 6.15669C269.89 6.66115 271.299 6.56725 272.986 5.93402C275.822 4.86632 276.679 5.42131 275.279 7.42428C274.728 8.21167 274.82 8.64053 275.608 8.95456C276.268 9.2219 276.765 8.64384 276.858 7.50827C276.982 6.00222 277.678 5.50643 280.337 5.03752C284.053 4.38222 284.848 5.41196 282.207 7.46584C281.245 8.20832 280.292 9.21045 280.085 9.68396C279.88 10.1678 278.202 10.8074 276.361 11.1108C274.52 11.4141 269.443 12.272 265.084 13.014C260.721 13.7539 257.092 14.0261 257.019 13.6126C256.946 13.1991 255.758 12.6571 254.382 12.412C252.066 12.0023 252.183 11.9072 255.901 11.1876ZM285.825 4.66696C287.863 3.44151 293.063 2.66055 293.221 3.55734C293.295 3.97601 292.061 4.70249 290.48 5.17855L290.485 5.17763C288.908 5.6502 286.896 5.91975 286.02 5.77308C284.498 5.5272 284.488 5.47293 285.825 4.66696ZM297.506 9.04009C300.414 7.57868 301.478 7.44961 305.026 8.1351C311.047 9.29053 311.133 10.2052 305.324 11.2297C302.522 11.7236 298.858 11.8128 297.177 11.4351L294.118 10.7407L297.506 9.04009ZM509.599 58.4172C508.882 58.2984 507.295 57.443 506.07 56.5105C504.846 55.5858 503.307 54.8952 502.65 54.9791C501.992 55.0685 499.556 54.5201 497.237 53.7644C494.916 53.0066 491.873 52.1334 490.475 51.823C489.073 51.5134 487.952 50.7784 487.979 50.1901C488.006 49.6043 486.337 48.0918 484.269 46.8337C479.899 44.1773 480.202 42.1786 484.729 43.8054C486.914 44.5925 488.016 44.5714 488.947 43.7278C490.841 42.0188 489.681 41.1789 485.879 41.5027C484.005 41.6653 481.837 41.4294 481.061 40.9854C479.018 39.8159 477.54 39.8634 469.453 41.3161C465.462 42.0356 461.749 42.3919 461.203 42.1045C460.654 41.8176 457.692 41.9774 454.62 42.4605C451.427 42.9569 447.512 42.9518 445.485 42.4432C442.248 41.6309 442.049 41.4261 443.254 40.1744C445.431 37.9066 443.5 37.7301 438.798 39.777C432.29 42.6006 425.584 42.003 424.81 38.5182C424.735 38.1715 428.604 37.2922 433.41 36.562C439.38 35.6586 442.2 34.9056 442.309 34.1935C442.397 33.621 441.977 33.2953 441.377 33.4572C437.819 34.4522 427.957 34.3019 426.85 33.2393C425.773 32.2062 425.427 32.2404 424.377 33.4782C422.93 35.1856 409.522 38.1681 406.571 37.4412C404.976 37.051 405.136 36.9296 407.476 36.77C409.035 36.663 410.255 36.2507 410.187 35.8657C410.118 35.478 411.637 34.0538 413.556 32.7C417.792 29.7148 419.24 27.6022 417.306 27.229C416.58 27.0879 415 27.5583 413.8 28.2789C410.814 30.0551 405.134 30.9635 404.485 29.7668C404.138 29.1246 401.84 29.1487 397.807 29.8411C394.424 30.419 391.61 30.6461 391.557 30.3463C391.411 29.5646 386.632 29.6185 376.556 30.5078C371.736 30.9314 367.178 30.9276 366.432 30.5022C365.685 30.0718 362.893 29.8818 360.235 30.0707C357.577 30.2622 355.536 30.0812 355.703 29.6654C356.269 28.2359 353.764 28.0273 346.911 28.9213C343.132 29.4171 339.696 29.6845 339.277 29.5132C338.853 29.3481 333.139 29.9134 326.568 30.7763C311.673 32.7311 307.649 32.809 307.359 31.1602C307.194 30.2298 308.2 29.7035 311.182 29.1616C316.435 28.2007 318.528 25.7559 313.538 26.4011C301.357 27.9815 300.123 28.2709 300.782 29.3645C301.273 30.184 300.621 30.5788 298.238 30.9217C295.049 31.3801 288.859 31.2164 290.554 30.7177C291.043 30.5755 292.089 29.7541 292.882 28.8976C294.184 27.4875 293.543 27.4806 286.195 28.8163C281.724 29.634 277.458 30.2422 276.718 30.1702C270.81 29.6104 268.588 29.9169 267.837 31.4003C267.159 32.7351 265.984 33.0249 259.206 33.5139C254.889 33.8327 248.976 34.1026 246.064 34.123C243.154 34.1378 236.712 34.7941 231.749 35.5758C222.901 36.9735 219.136 36.7021 215.91 34.4435C213.989 33.1008 215.227 32.4562 221.416 31.5754C227.167 30.7612 231.789 28.4834 232.221 26.2487C232.569 24.4606 228.685 25.2227 227.286 27.2201C226.431 28.4474 225.01 28.8473 220.29 29.2052C217.034 29.4515 212.448 30.039 210.107 30.5157C206.383 31.2656 206.005 31.1936 207.138 29.9706C207.851 29.1921 208.399 28.3573 208.355 28.1092C208.312 27.8637 205.045 28.4397 201.093 29.3897C194.296 31.0252 193.804 31.0294 191.824 29.38C189.942 27.8199 189.645 27.8028 188.898 29.1978C188.249 30.418 186.669 30.9605 181.613 31.6974C172.228 33.0565 168.334 32.8557 168.483 31.0095C168.581 29.8009 168.005 29.6308 165.528 30.1342C163.837 30.4749 162.107 31.049 161.689 31.4106C161.268 31.7727 159.755 32.5484 158.325 33.1283C155.45 34.2934 153.425 33.2062 156.146 31.9562C158.441 30.9014 157.226 29.7539 153.729 29.6724C151.996 29.6343 151.147 29.2484 151.554 28.6862C151.926 28.165 153.838 27.7799 155.928 27.8004C158.274 27.8211 159.912 27.4416 160.383 26.7697C160.907 26.0245 162.009 25.8541 164.086 26.2073C167.464 26.7762 182.2 24.4017 190.92 21.8809C196.655 20.2247 200.437 20.2268 202.183 21.8935C202.693 22.3818 203.186 22.1537 203.562 21.2666C204.072 20.0468 205.648 19.7956 216.104 19.2229C228.238 18.565 230.082 18.7302 228.298 20.3213C227.575 20.9683 227.877 21.2589 229.394 21.3857C230.543 21.4789 231.547 21.158 231.625 20.6671C231.701 20.1741 232.145 19.9279 232.616 20.1168C234.486 20.8581 251.798 18.0988 252.826 16.8863C253.635 15.9308 253.903 15.9663 254.096 17.0646C254.231 17.8296 254.675 18.3963 255.086 18.3238C255.494 18.2518 259.328 18.1861 263.601 18.1813C267.876 18.171 274.334 17.5732 277.954 16.855C281.575 16.1419 284.905 15.696 285.353 15.8648C285.804 16.0358 293.048 15.8617 301.457 15.4769C313.016 14.9443 317.285 14.4473 318.982 13.4447C320.636 12.4601 321.271 12.3748 321.4 13.1061C321.825 15.4695 341.37 14.6027 343.092 12.1432C343.816 11.1096 341.783 10.101 339.705 10.4674C338.473 10.6847 336.215 10.7124 334.693 10.5304C325.692 9.44475 323.31 9.41704 317.855 10.3631C312.417 11.3059 311.768 11.2391 311.257 9.68247C310.369 6.97442 314.036 4.84878 317.717 5.93989C320.298 6.70521 320.755 6.61938 322.435 5.04134C323.596 3.94924 325.235 3.31388 326.813 3.34998C328.197 3.38316 329.486 3.01727 329.679 2.53829C330.18 1.28541 327.361 0.604732 322.311 0.756957C319.894 0.831416 317.561 0.749759 317.126 0.581257C315.496 -0.0639864 308.31 1.2059 306.478 2.46695C304.906 3.54607 304.375 3.54113 303.491 2.45787C302.731 1.53136 301.821 1.40399 300.411 2.03376C299.188 2.58238 298.343 2.56098 298.24 1.97949C298.148 1.46003 296.801 1.25522 295.245 1.52955C293.692 1.80343 291.98 1.71897 291.442 1.34478C290.904 0.967994 285.812 1.26905 280.123 2.01102C274.437 2.75771 267.402 3.39324 264.495 3.42354C257.045 3.50338 252.486 4.44313 250.809 6.24722C248.631 8.58711 244.669 9.0566 243.76 7.07444C243.013 5.45533 241.013 5.15785 240.444 6.58524C240.281 6.99491 239.049 7.47071 237.707 7.64596C236.366 7.8212 233.814 8.15924 232.036 8.39554C229.871 8.68939 228.729 8.427 228.585 7.61033C228.414 6.63859 227.356 6.65456 223.519 7.68548L218.673 8.98777L220.429 6.96722C222.249 4.86625 221.593 2.73029 219.517 3.98112C218.866 4.37293 217.664 4.31044 216.849 3.84393C216.035 3.38517 215.186 3.25249 214.971 3.56213C214.754 3.87222 213.298 3.83325 211.736 3.48247C209.823 3.04956 208.093 3.22673 206.434 4.03615C204.771 4.85166 203.719 4.95732 203.197 4.37242C202.669 3.78069 201.431 3.91916 199.258 4.82185C197.518 5.54446 191.567 6.96152 186.038 7.96561C176.13 9.77402 175.978 9.77156 175.639 7.84877C175.238 5.5745 173.072 5.59655 172.274 7.88251C171.584 9.86414 169.376 9.05691 169.553 6.88594C169.706 5.00168 168.51 4.82608 160.218 5.52088C153.272 6.10077 133.795 9.43915 128.071 11.0267C125.758 11.6744 120.442 13.0807 116.261 14.1589C111.716 15.3281 108.183 16.7026 107.48 17.5699C106.699 18.5338 103.36 19.6795 97.5218 20.9833C92.6936 22.0585 88.4296 23.386 88.04 23.9423C87.6573 24.4921 85.8765 25.1978 84.0881 25.5132C81.7647 25.9228 80.8974 26.4595 81.0591 27.377C81.287 28.6692 80.4695 29.1411 77.6545 29.347C76.8151 29.4071 76.2134 29.9395 76.3178 30.5313C76.4263 31.1464 75.8979 31.0211 75.0828 30.2374C73.7232 28.9343 73.3497 28.9922 66.7012 31.5315C62.8712 32.9929 59.1511 34.2165 58.4305 34.2556C56.5848 34.3519 51.3494 36.4875 45.7308 39.4421C43.1011 40.8198 39.9329 42.1352 38.6924 42.354C37.4518 42.5727 36.0547 43.2934 35.5911 43.9587C35.1223 44.625 34.6874 44.8482 34.619 44.4605C34.5511 44.0755 33.9377 44.4048 33.2525 45.1891C32.4087 46.1613 32.1566 46.2431 32.4644 45.4347C32.7833 44.6137 32.2551 44.3684 30.7277 44.6377C29.4174 44.8688 28.6214 45.5074 28.7476 46.2233C29.0871 48.1487 24.8067 50.1239 22.6248 49.0537C19.8061 47.6667 18.5185 48.2988 18.9688 50.8522L19.3748 53.1549L17.2973 51.5892C14.5812 49.5446 12.9921 49.9021 11.7276 52.8564C11.1584 54.1773 9.81878 55.6473 8.74941 56.1263C6.52644 57.1205 6.5139 58.7722 8.71492 60.3134C9.54578 60.8997 10.3263 61.9558 10.4507 62.6614C10.5755 63.3695 11.5239 64.063 12.5529 64.2013C13.5875 64.3413 14.2898 64.6519 14.1183 64.9033C13.7112 65.4813 8.96855 64.2604 8.84232 63.5445C8.74708 63.0044 3.36328 64.2682 1.42018 65.293C0.258814 65.9001 0.44852 68.185 1.70049 68.6811C2.16518 68.8683 2.99718 70.0353 3.55507 71.2799C4.10688 72.5203 5.66327 74.5616 7.01288 75.8079C8.36249 77.0542 9.7605 78.9528 10.1179 80.0276C10.7493 81.9308 11.9542 82.659 15.1528 83.057C16.3636 83.2139 16.8966 84.1965 17.4435 87.2977C18.3458 92.4149 22.4186 101.7 24.4913 103.36C25.3603 104.057 27.1953 104.429 28.565 104.187C31.5009 103.669 34.6106 104.531 34.8563 105.924C34.9515 106.464 34.3795 107.905 33.5811 109.12L32.1312 111.339L34.7455 114.484C36.189 116.217 37.9449 117.546 38.6567 117.442C40.8867 117.108 43.6091 118.991 43.2907 120.646C42.8927 122.696 44.8938 124.267 47.3464 123.835C48.4396 123.642 49.6208 123.812 49.9788 124.21C50.6799 124.998 55.3995 123.761 59.2854 121.77C60.6251 121.086 63.8946 119.936 66.5558 119.206C71.4591 117.862 74.2222 115.941 77.2884 111.75C78.2247 110.471 79.417 109.344 79.939 109.252C80.4658 109.156 81.9411 108.259 83.2222 107.258C84.6501 106.137 88.3421 104.815 92.7742 103.836C96.7495 102.957 102.819 101.335 106.268 100.236C109.717 99.1379 118.939 96.4911 126.76 94.3554C140.054 90.7269 141.099 90.5506 142.846 91.6443C144.545 92.7143 145.804 92.5377 157.049 89.6515C163.832 87.9064 169.766 86.0607 170.23 85.5472C171.719 83.8989 175.044 82.8198 176.347 83.5626C177.079 83.9772 178.931 83.8131 180.739 83.1719C182.46 82.5621 186.455 81.2341 189.614 80.2294C192.769 79.22 195.517 78.1626 195.717 77.8768C195.917 77.5911 196.995 78.1763 198.113 79.1785C200.384 81.2082 204.131 81.0113 206.81 78.7215C208.106 77.6083 208.548 77.5303 209.012 78.3332C209.327 78.8825 210.133 79.2387 210.8 79.1211C211.467 79.0035 211.831 78.4409 211.609 77.8753C211.309 77.0967 213.153 76.5371 218.94 75.6259C226.47 74.4421 228.884 74.259 239.851 74.012C254.565 73.6879 257.985 73.346 259.936 72.0054C261.496 70.9255 262.099 70.8698 262.853 71.7148C263.648 72.6086 264.115 72.5369 265.701 71.2873C266.776 70.4475 268.457 69.914 269.579 70.0678C271.399 70.3066 271.453 70.4355 270.287 71.6511C269.189 72.7961 269.736 72.998 274.236 73.0973C277.104 73.1645 285.172 72.9917 292.167 72.7202C299.164 72.4457 307.455 72.1643 310.602 72.0998C313.746 72.0276 322.013 71.5906 328.975 71.1197C335.935 70.6467 342.231 70.3572 342.961 70.4763C343.695 70.5894 347.265 70.5542 350.894 70.3859C354.525 70.2255 360.453 69.9662 364.069 69.8162C367.684 69.6692 373.793 69.3621 377.635 69.1323C384.196 68.7402 390.036 68.6164 400.514 68.6583C402.944 68.6722 407.856 68.3629 411.429 67.9674C420.436 66.9867 416.266 66.4003 401.924 66.635C395.628 66.735 384.724 66.8671 377.689 66.9271C366.552 67.0174 339.38 67.926 337.419 68.2719C337.036 68.3393 336.121 67.5148 335.382 66.4405C334.236 64.7721 334.263 64.3089 335.577 63.2831C336.421 62.6147 338.256 61.7902 339.649 61.4406C341.311 61.0276 341.975 60.4575 341.575 59.7873C340.787 58.4767 350.034 57.3764 353.187 58.406C354.623 58.8775 359.912 58.3127 369.154 56.7017C376.752 55.3727 383.731 54.5311 384.665 54.8222C385.598 55.1133 388.194 55.1911 390.434 54.9881C395.732 54.5229 404.213 54.5196 413.118 54.9853C417.043 55.1939 422.083 55.2114 424.321 55.0273C426.556 54.8436 428.793 54.8541 429.296 55.0613C429.8 55.2576 434.114 55.3336 438.885 55.2198C448.923 54.9901 454.104 55.1024 459.152 55.6487C463.16 56.0879 469.102 56.2845 473.878 56.1378C475.603 56.0841 477.931 56.6357 479.047 57.3556C480.327 58.1931 482.308 58.4567 484.407 58.0759C489.457 57.1695 493.577 57.1891 497.603 58.1233C503.415 59.4809 509.959 60.0964 510.449 59.3385C510.697 58.9509 510.316 58.5412 509.599 58.4172Z" fill="#FFCD00"/>
</svg>
